<?xml version="1.0" encoding="UTF-8"?><svg id="Layer_1" xmlns="http://www.w3.org/2000/svg" viewBox="0 0 1362 330"><defs><style>.cls-1{fill:none;stroke:#fff;stroke-miterlimit:10;stroke-width:32px;}.cls-2,.cls-3{stroke-width:0px;}.cls-3{fill:#fff;}</style></defs><rect class="cls-2" x="362" y="-2.25" width="1000" height="333"/><path class="cls-3" d="m537.25,241.81c-13.75,12.58-31.33,18.88-52.75,18.88-26.5,0-47.33-8.5-62.5-25.5-15.17-17.08-22.75-40.5-22.75-70.25,0-32.17,8.62-56.96,25.88-74.38,15-15.17,34.08-22.75,57.25-22.75,31,0,53.67,10.17,68,30.5,7.92,11.42,12.17,22.88,12.75,34.38h-38.5c-2.5-8.83-5.71-15.5-9.62-20-7-8-17.37-12-31.12-12s-25.04,5.65-33.12,16.94c-8.08,11.29-12.12,27.27-12.12,47.94s4.27,36.15,12.81,46.44c8.54,10.29,19.39,15.44,32.56,15.44s23.79-4.42,30.87-13.25c3.92-4.75,7.17-11.88,9.75-21.38h38.12c-3.33,20.08-11.83,36.42-25.5,49Z"/><path class="cls-3" d="m705.87,215.56c-.92,8.08-5.12,16.29-12.62,24.62-11.67,13.25-28,19.88-49,19.88-17.33,0-32.62-5.58-45.88-16.75-13.25-11.17-19.88-29.33-19.88-54.5,0-23.58,5.98-41.67,17.94-54.25,11.96-12.58,27.48-18.88,46.56-18.88,11.33,0,21.54,2.12,30.62,6.38,9.08,4.25,16.58,10.96,22.5,20.12,5.33,8.08,8.79,17.46,10.38,28.12.92,6.25,1.29,15.25,1.12,27h-93.25c.5,13.67,4.79,23.25,12.88,28.75,4.92,3.42,10.83,5.12,17.75,5.12,7.33,0,13.29-2.08,17.88-6.25,2.5-2.25,4.71-5.38,6.62-9.38h36.38Zm-35.25-41.75c-.58-9.42-3.44-16.56-8.56-21.44s-11.48-7.31-19.06-7.31c-8.25,0-14.65,2.58-19.19,7.75-4.54,5.17-7.4,12.17-8.56,21h55.38Z"/><path class="cls-3" d="m795.75,145.69c-12.08,0-20.38,5.12-24.88,15.38-2.33,5.42-3.5,12.33-3.5,20.75v73.75h-35.5V119.56h34.38v19.88c4.58-7,8.92-12.04,13-15.12,7.33-5.5,16.62-8.25,27.88-8.25,14.08,0,25.6,3.69,34.56,11.06,8.96,7.38,13.44,19.61,13.44,36.69v91.75h-36.5v-82.88c0-7.17-.96-12.67-2.88-16.5-3.5-7-10.17-10.5-20-10.5Z"/><path class="cls-3" d="m951.87,70.19v29c-2-.25-5.36-.44-10.06-.56-4.71-.12-7.96.92-9.75,3.12-1.79,2.21-2.69,4.65-2.69,7.31v11.5h23.38v25.12h-23.38v109.88h-35.5v-109.88h-19.88v-25.12h19.5v-8.75c0-14.58,2.46-24.62,7.38-30.12,5.17-8.17,17.62-12.25,37.38-12.25,2.25,0,4.29.06,6.12.19,1.83.12,4.33.31,7.5.56Z"/><path class="cls-3" d="m1009.87,70.19v32.88h-36.12v-32.88h36.12Zm0,49.12v136.25h-36.12V119.31h36.12Z"/><path class="cls-3" d="m1108.5,145.69c-12.08,0-20.38,5.12-24.88,15.38-2.33,5.42-3.5,12.33-3.5,20.75v73.75h-35.5V119.56h34.38v19.88c4.58-7,8.92-12.04,13-15.12,7.33-5.5,16.62-8.25,27.88-8.25,14.08,0,25.6,3.69,34.56,11.06,8.96,7.38,13.44,19.61,13.44,36.69v91.75h-36.5v-82.88c0-7.17-.96-12.67-2.88-16.5-3.5-7-10.17-10.5-20-10.5Z"/><path class="cls-3" d="m1324.75,71.56v184h-34.62v-18.88c-5.08,8.08-10.88,13.96-17.38,17.62s-14.58,5.5-24.25,5.5c-15.92,0-29.31-6.44-40.19-19.31s-16.31-29.39-16.31-49.56c0-23.25,5.35-41.54,16.06-54.88,10.71-13.33,25.02-20,42.94-20,8.25,0,15.58,1.81,22,5.44,6.42,3.62,11.62,8.65,15.62,15.06v-65h36.12Zm-96,116.75c0,12.58,2.5,22.62,7.5,30.12,4.92,7.58,12.42,11.38,22.5,11.38s17.75-3.75,23-11.25,7.88-17.21,7.88-29.12c0-16.67-4.21-28.58-12.62-35.75-5.17-4.33-11.17-6.5-18-6.5-10.42,0-18.06,3.94-22.94,11.81s-7.31,17.65-7.31,29.31Z"/><rect class="cls-2" y="-.75" width="330" height="330"/><circle class="cls-3" cx="177.36" cy="151.44" r="16"/><circle class="cls-3" cx="149.76" cy="187.03" r="8"/><path class="cls-1" d="m165,85.77c-43.34,0-78.48,35.14-78.48,78.48s35.14,78.48,78.48,78.48,78.48-35.14,78.48-78.48"/></svg>